<svg width="12" height="14" viewBox="0 0 12 14" fill="none" xmlns="http://www.w3.org/2000/svg">
<path id="Vector" d="M7.0382 12.402C6.9327 12.5839 6.78126 12.7349 6.59906 12.8398C6.41686 12.9448 6.21028 13 6.00002 13C5.78975 13 5.58318 12.9448 5.40098 12.8398C5.21877 12.7349 5.06734 12.5839 4.96183 12.402M9.60066 4.60064C9.60066 3.64569 9.2213 2.72985 8.54605 2.0546C7.8708 1.37935 6.95497 1 6.00002 1C5.04507 1 4.12923 1.37935 3.45398 2.0546C2.77873 2.72985 2.39938 3.64569 2.39938 4.60064C2.39938 8.80138 0.59906 10.0016 0.59906 10.0016H11.401C11.401 10.0016 9.60066 8.80138 9.60066 4.60064Z" stroke="#EEEEEE" stroke-linecap="round" stroke-linejoin="round"/>
</svg>
