<svg width="12" height="10" viewBox="0 0 12 10" fill="none" xmlns="http://www.w3.org/2000/svg">
<g id="Vector">
<path d="M11.25 2H3.75C3.55109 2 3.36032 1.92098 3.21967 1.78033C3.07902 1.63968 3 1.44891 3 1.25C3 1.05109 3.07902 0.860322 3.21967 0.71967C3.36032 0.579018 3.55109 0.5 3.75 0.5H11.25C11.4489 0.5 11.6397 0.579018 11.7803 0.71967C11.921 0.860322 12 1.05109 12 1.25C12 1.44891 11.921 1.63968 11.7803 1.78033C11.6397 1.92098 11.4489 2 11.25 2Z" fill="#EEEEEE"/>
<path d="M11.25 5.75H3.75C3.55109 5.75 3.36032 5.67098 3.21967 5.53033C3.07902 5.38968 3 5.19891 3 5C3 4.80109 3.07902 4.61032 3.21967 4.46967C3.36032 4.32902 3.55109 4.25 3.75 4.25H11.25C11.4489 4.25 11.6397 4.32902 11.7803 4.46967C11.921 4.61032 12 4.80109 12 5C12 5.19891 11.921 5.38968 11.7803 5.53033C11.6397 5.67098 11.4489 5.75 11.25 5.75Z" fill="#EEEEEE"/>
<path d="M11.25 9.5H3.75C3.55109 9.5 3.36032 9.42098 3.21967 9.28033C3.07902 9.13968 3 8.94891 3 8.75C3 8.55109 3.07902 8.36032 3.21967 8.21967C3.36032 8.07902 3.55109 8 3.75 8H11.25C11.4489 8 11.6397 8.07902 11.7803 8.21967C11.921 8.36032 12 8.55109 12 8.75C12 8.94891 11.921 9.13968 11.7803 9.28033C11.6397 9.42098 11.4489 9.5 11.25 9.5Z" fill="#EEEEEE"/>
<path d="M0.75 2C1.16421 2 1.5 1.66421 1.5 1.25C1.5 0.835786 1.16421 0.5 0.75 0.5C0.335786 0.5 0 0.835786 0 1.25C0 1.66421 0.335786 2 0.75 2Z" fill="#EEEEEE"/>
<path d="M0.75 5.75C1.16421 5.75 1.5 5.41421 1.5 5C1.5 4.58579 1.16421 4.25 0.75 4.25C0.335786 4.25 0 4.58579 0 5C0 5.41421 0.335786 5.75 0.75 5.75Z" fill="#EEEEEE"/>
<path d="M0.75 9.5C1.16421 9.5 1.5 9.16421 1.5 8.75C1.5 8.33579 1.16421 8 0.75 8C0.335786 8 0 8.33579 0 8.75C0 9.16421 0.335786 9.5 0.75 9.5Z" fill="#EEEEEE"/>
</g>
</svg>
