<svg width="14" height="12" viewBox="0 0 14 12" fill="none" xmlns="http://www.w3.org/2000/svg">
<g id="Vector">
<path d="M13.4419 4.20171H0.558131C0.453719 4.20171 0.358835 4.14118 0.314816 4.04643C0.270796 3.95168 0.285693 3.84003 0.35293 3.76031L3.44288 0.09542C3.49388 0.0348933 3.5689 0 3.64808 0H10.3526C10.4318 0 10.5068 0.0348933 10.5578 0.09542L13.6471 3.76031C13.7143 3.84016 13.7292 3.95182 13.6852 4.04643C13.6412 4.14105 13.5463 4.20171 13.4419 4.20171ZM1.13562 3.66489H12.8647L10.2279 0.536823H3.77289L1.13562 3.66489Z" fill="#EEEEEE"/>
<path d="M7 12L0.352794 4.10616L0.763463 3.76044L7 11.1664L13.2365 3.76044L13.6472 4.10616L7 12Z" fill="#EEEEEE"/>
<path d="M7.00001 11.8516C6.88606 11.8516 6.78474 11.7798 6.74689 11.6724L4.0499 4.02255C4.02024 3.93867 4.0342 3.8458 4.0868 3.77413L6.7838 0.109246C6.88472 -0.0281804 7.11489 -0.0281804 7.21608 0.109246L9.91361 3.77413C9.96635 3.84567 9.98018 3.93867 9.95052 4.02255L7.25298 11.6724C7.21527 11.7798 7.11395 11.8516 7.00001 11.8516ZM4.60336 3.97799L6.99987 10.776L9.39692 3.97799L7.00001 0.721224L4.60336 3.97799Z" fill="#EEEEEE"/>
<path d="M4.56718 3.88592L3.91233 0.221131L3.38388 0.315558L4.03874 3.98035L4.56718 3.88592Z" fill="#EEEEEE"/>
<path d="M10.6171 0.315448L10.0887 0.220967L9.43343 3.88589L9.96188 3.98037L10.6171 0.315448Z" fill="#EEEEEE"/>
</g>
</svg>
