<svg width="12" height="12" viewBox="0 0 12 12" fill="none" xmlns="http://www.w3.org/2000/svg">
<path id="Shape" fill-rule="evenodd" clip-rule="evenodd" d="M4.94115 0C2.21223 0 0 2.21223 0 4.94115C0 7.67008 2.21223 9.88231 4.94115 9.88231C6.05103 9.88231 7.07544 9.51638 7.90032 8.89859L10.795 11.7933C11.0707 12.0689 11.5176 12.0689 11.7933 11.7933C12.0689 11.5176 12.0689 11.0707 11.7933 10.795L8.89859 7.90032C9.51638 7.07544 9.88231 6.05103 9.88231 4.94115C9.88231 2.21223 7.67008 0 4.94115 0ZM1.41176 4.94115C1.41176 2.99192 2.99192 1.41176 4.94115 1.41176C6.89039 1.41176 8.47055 2.99192 8.47055 4.94115C8.47055 6.89039 6.89039 8.47055 4.94115 8.47055C2.99192 8.47055 1.41176 6.89039 1.41176 4.94115Z" fill="#EEEEEE"/>
</svg>
