<svg width="20" height="20" viewBox="0 0 20 20" fill="none" xmlns="http://www.w3.org/2000/svg">
<g id="Icon">
<path id="Shape" fill-rule="evenodd" clip-rule="evenodd" d="M8.57832 5.46822C8.15289 5.04279 7.40914 4.61509 6.03692 4.95824C4.65998 5.30256 3.64419 6.32847 3.30679 7.59339C2.97564 8.83485 3.27527 10.4112 4.75813 11.8938L9.41443 16.5494C9.73998 16.8749 10.2656 16.8748 10.5911 16.5491C11.6368 15.5028 13.2983 13.8404 15.2449 11.8939C16.727 10.4118 17.0267 8.83535 16.6957 7.59365C16.3584 6.32859 15.3428 5.30255 13.9656 4.95825C12.5929 4.61506 11.849 5.04284 11.4236 5.46822C11.1909 5.7009 11.0308 5.95888 10.9287 6.16311C10.8783 6.26381 10.8441 6.34735 10.8236 6.40205C10.8134 6.42926 10.8067 6.44893 10.8033 6.45954L10.8006 6.46794C10.6965 6.82249 10.3711 7.06644 10.0011 7.06646C9.63108 7.06648 9.30564 6.82259 9.20149 6.46805L9.1988 6.45963C9.19533 6.44902 9.18866 6.42935 9.17845 6.40213C9.15793 6.34742 9.12372 6.26388 9.07336 6.16316C8.97121 5.95892 8.81103 5.70092 8.57832 5.46822ZM10.001 4.55655C10.0758 4.46723 10.157 4.37779 10.2451 4.2897C11.0698 3.46508 12.4092 2.85119 14.3698 3.34134C16.3259 3.83037 17.8102 5.30433 18.3061 7.16427C18.8082 9.04758 18.2746 11.2212 16.4234 13.0724C14.477 15.0187 12.8156 16.681 11.77 17.7272C10.7938 18.7041 9.21268 18.7045 8.23601 17.728L3.57971 13.0724C1.72777 11.2208 1.19408 9.04715 1.69643 7.16384C2.19252 5.304 3.67705 3.83037 5.6326 3.34135C7.59287 2.85116 8.93225 3.46513 9.75683 4.2897C9.84492 4.37779 9.92616 4.46723 10.001 4.55655Z" fill="white"/>
</g>
</svg>
